<svg xmlns="http://www.w3.org/2000/svg" viewBox="0 0 434.13 550.4"><defs><style>.cls-1{fill:#1d1d1b;stroke:#000;stroke-miterlimit:10;stroke-width:0.26px;}.cls-2{font-size:134.54px;fill:#bd1839;font-family:GloucesterMT-ExtraCondensed, Gloucester MT Extra Condensed;}</style></defs><g id="Capa_2" data-name="Capa 2"><g id="Capa_1-2" data-name="Capa 1"><path class="cls-1" d="M28.7,390.47a8,8,0,0,1-5.27,1.79A9,9,0,0,1,18.68,391a7.74,7.74,0,0,1-3.24-4,17.15,17.15,0,0,1-1-6.23,16.52,16.52,0,0,1,.88-5.37,8.16,8.16,0,0,1,3-4.16,9.06,9.06,0,0,1,5.39-1.54,7.52,7.52,0,0,1,4.66,1.39,8.62,8.62,0,0,1,2.83,4.45l3.64-.86a11.08,11.08,0,0,0-4-6,11.44,11.44,0,0,0-7.06-2.14A13.81,13.81,0,0,0,17,368.19a11.48,11.48,0,0,0-4.76,4.94,16.54,16.54,0,0,0-1.67,7.63,19.15,19.15,0,0,0,1.48,7.5,11.52,11.52,0,0,0,4.32,5.33,13.26,13.26,0,0,0,7.35,1.84,11.59,11.59,0,0,0,7.4-2.39,12.49,12.49,0,0,0,4.19-7l-3.7-.93A9.21,9.21,0,0,1,28.7,390.47Z"/><path class="cls-1" d="M55.85,386.46v-4.58a18.9,18.9,0,0,0-.17-3.17,5.29,5.29,0,0,0-1.07-2.33,5.55,5.55,0,0,0-2.38-1.54,12.12,12.12,0,0,0-4.22-.61,13.46,13.46,0,0,0-4.6.72,6.51,6.51,0,0,0-3,2,8.2,8.2,0,0,0-1.51,3.48l3.36.46a5.21,5.21,0,0,1,1.71-3,6.07,6.07,0,0,1,3.57-.85,5.76,5.76,0,0,1,3.92,1.17,3.83,3.83,0,0,1,1,3c0,.12,0,.42,0,.89a31,31,0,0,1-6.13,1.19,23.25,23.25,0,0,0-3,.51,8.32,8.32,0,0,0-2.47,1.13,5.65,5.65,0,0,0-1.78,2,5.57,5.57,0,0,0-.67,2.72,5.38,5.38,0,0,0,1.79,4.17,7.37,7.37,0,0,0,5.13,1.63,10.71,10.71,0,0,0,3.79-.66,13,13,0,0,0,3.68-2.29,7.46,7.46,0,0,0,.68,2.5h3.59a7.84,7.84,0,0,1-.87-2.44A49.8,49.8,0,0,1,55.85,386.46ZM52.38,386a8.31,8.31,0,0,1-.55,3.44,5.35,5.35,0,0,1-2.27,2.37,7.09,7.09,0,0,1-3.54.87,4.47,4.47,0,0,1-3-.91,3,3,0,0,1-.56-3.93,3,3,0,0,1,1.35-1.11,13.13,13.13,0,0,1,3-.69,24.86,24.86,0,0,0,5.61-1.3Z"/><path class="cls-1" d="M64.11,367.33a4.36,4.36,0,0,0-1.75,2.17,9.47,9.47,0,0,0-.36,3v2.16H59v2.67h3V395h3.42v-17.6h4v-2.67h-4v-1.87a3.63,3.63,0,0,1,.64-2.5,3,3,0,0,1,2.22-.67,11.26,11.26,0,0,1,2,.19l.52-3a16.72,16.72,0,0,0-3.21-.34A6.31,6.31,0,0,0,64.11,367.33Z"/><path class="cls-1" d="M80.36,374.23a8.91,8.91,0,0,0-6.83,2.82c-1.76,1.89-2.64,4.53-2.64,7.94s.87,5.86,2.61,7.69a9.28,9.28,0,0,0,7,2.73,9.38,9.38,0,0,0,5.8-1.71,8.66,8.66,0,0,0,3.11-4.83l-3.55-.44a6.58,6.58,0,0,1-2.12,3.17,5.25,5.25,0,0,1-3.22,1,5.61,5.61,0,0,1-4.24-1.78,7.79,7.79,0,0,1-1.89-5.11H89.56c0-.41,0-.71,0-.92,0-3.34-.86-5.94-2.58-7.78A8.65,8.65,0,0,0,80.36,374.23Zm-5.73,8.65a6.27,6.27,0,0,1,1.79-4.24,5.44,5.44,0,0,1,4-1.59,5.27,5.27,0,0,1,4.25,2,6.78,6.78,0,0,1,1.3,3.84Z"/><polygon class="cls-1" points="85.38 366.82 80.87 366.82 78.34 372.17 81.18 372.17 85.38 366.82"/><path class="cls-1" d="M111.35,370.6a20.7,20.7,0,0,1-5,3.29v3.32a23.4,23.4,0,0,0,3.62-1.78,18,18,0,0,0,3.25-2.36V395h3.44v-28.1h-2.21A12.86,12.86,0,0,1,111.35,370.6Z"/><path class="cls-1" d="M141.3,370.38a7.62,7.62,0,0,0-2.81-2.61,8.31,8.31,0,0,0-4-.91,7.81,7.81,0,0,0-5.07,1.64,10,10,0,0,0-3,4.67,25.65,25.65,0,0,0-1,8q0,7.88,2.77,11.37a7.65,7.65,0,0,0,6.35,2.9,7.78,7.78,0,0,0,5.09-1.65,9.93,9.93,0,0,0,3-4.67,25.54,25.54,0,0,0,1-7.95,27.69,27.69,0,0,0-.63-6.62A14.31,14.31,0,0,0,141.3,370.38Zm-2.78,19.94a4.61,4.61,0,0,1-8,0q-1.6-2.28-1.61-9.17c0-4.6.59-7.74,1.77-9.45a4.41,4.41,0,0,1,3.78-2,4.77,4.77,0,0,1,4,2.27c1.08,1.51,1.61,4.57,1.61,9.18S139.6,388.79,138.52,390.32Z"/><path class="cls-1" d="M163,370.38a7.52,7.52,0,0,0-2.8-2.61,8.31,8.31,0,0,0-3.95-.91,7.78,7.78,0,0,0-5.07,1.64,10,10,0,0,0-3,4.67,25.65,25.65,0,0,0-1,8q0,7.88,2.76,11.37a8.52,8.52,0,0,0,11.44,1.25,9.87,9.87,0,0,0,3-4.67,25.85,25.85,0,0,0,1-7.95,27.69,27.69,0,0,0-.63-6.62A14,14,0,0,0,163,370.38Zm-2.77,19.94a4.61,4.61,0,0,1-8,0c-1.08-1.52-1.61-4.58-1.61-9.17s.59-7.74,1.77-9.45a4.39,4.39,0,0,1,3.78-2,4.79,4.79,0,0,1,4,2.27q1.61,2.26,1.61,9.18T160.26,390.32Z"/><polygon class="cls-1" points="190.84 366.5 175.53 395.99 178.38 395.99 193.63 366.5 190.84 366.5"/><path class="cls-1" d="M179.76,379.37a7.81,7.81,0,0,0,1.75-5.46,7.92,7.92,0,0,0-1.73-5.53,5.67,5.67,0,0,0-4.36-1.88,5,5,0,0,0-4.37,2.1,8.55,8.55,0,0,0-1.51,5.1c0,2.54.57,4.44,1.69,5.7a5.45,5.45,0,0,0,4.23,1.89A5.58,5.58,0,0,0,179.76,379.37Zm-2.1-1.55a2.62,2.62,0,0,1-4.26,0,6.33,6.33,0,0,1-.86-3.79c0-2,.28-3.33.85-4.07a2.62,2.62,0,0,1,4.26,0,6.31,6.31,0,0,1,.86,3.81C178.51,375.73,178.23,377.08,177.66,377.82Z"/><path class="cls-1" d="M193.53,381.2a5.07,5.07,0,0,0-4.39,2.09,8.5,8.5,0,0,0-1.5,5.1q0,3.8,1.68,5.7a5.46,5.46,0,0,0,4.23,1.9,5.59,5.59,0,0,0,4.32-1.92,9.55,9.55,0,0,0,0-11A5.63,5.63,0,0,0,193.53,381.2Zm2.25,11.31a2.62,2.62,0,0,1-2.17,1.11,2.59,2.59,0,0,1-2.12-1.11,6.3,6.3,0,0,1-.86-3.78c0-2,.28-3.32.85-4.06a2.6,2.6,0,0,1,2.15-1.11,2.64,2.64,0,0,1,2.14,1.1,6.37,6.37,0,0,1,.85,3.81C196.62,390.43,196.34,391.78,195.78,392.51Z"/><path class="cls-1" d="M232.94,390.47a7.94,7.94,0,0,1-5.27,1.79,9,9,0,0,1-4.75-1.31,7.77,7.77,0,0,1-3.23-4,17.15,17.15,0,0,1-1-6.23,16.78,16.78,0,0,1,.87-5.37,8.23,8.23,0,0,1,3-4.16,9,9,0,0,1,5.39-1.54,7.54,7.54,0,0,1,4.66,1.39,8.67,8.67,0,0,1,2.82,4.45l3.65-.86a11.19,11.19,0,0,0-4-6A11.47,11.47,0,0,0,228,366.5a13.86,13.86,0,0,0-6.78,1.69,11.46,11.46,0,0,0-4.75,4.94,16.54,16.54,0,0,0-1.67,7.63,19,19,0,0,0,1.48,7.5,11.51,11.51,0,0,0,4.31,5.33,13.27,13.27,0,0,0,7.36,1.84,11.6,11.6,0,0,0,7.4-2.39,12.48,12.48,0,0,0,4.18-7l-3.7-.93A9.15,9.15,0,0,1,232.94,390.47Z"/><path class="cls-1" d="M251.91,374.23a9.41,9.41,0,0,0-6.37,2.25q-3.14,2.72-3.13,8.34c0,3.42.87,6.05,2.62,7.86a9.11,9.11,0,0,0,6.88,2.73,9.94,9.94,0,0,0,4.9-1.24,8.23,8.23,0,0,0,3.41-3.48,13.29,13.29,0,0,0,1.18-6.15,10.41,10.41,0,0,0-2.66-7.57A9.07,9.07,0,0,0,251.91,374.23Zm4.26,16.41a5.65,5.65,0,0,1-8.53,0c-1.14-1.29-1.7-3.23-1.7-5.83s.56-4.53,1.7-5.82a5.66,5.66,0,0,1,8.52,0,8.42,8.42,0,0,1,1.7,5.7C257.86,387.37,257.3,389.34,256.17,390.64Z"/><rect class="cls-1" x="265.35" y="366.98" width="3.44" height="27.98"/><path class="cls-1" d="M282.33,374.23a9.43,9.43,0,0,0-6.37,2.25q-3.13,2.72-3.13,8.34c0,3.42.87,6.05,2.62,7.86a9.11,9.11,0,0,0,6.88,2.73,9.94,9.94,0,0,0,4.9-1.24,8.23,8.23,0,0,0,3.41-3.48,13.29,13.29,0,0,0,1.18-6.15,10.41,10.41,0,0,0-2.66-7.57A9.06,9.06,0,0,0,282.33,374.23Zm4.26,16.41a5.65,5.65,0,0,1-8.53,0c-1.14-1.29-1.7-3.23-1.7-5.83s.56-4.53,1.7-5.82a5.66,5.66,0,0,1,8.52,0,8.42,8.42,0,0,1,1.71,5.7C288.29,387.37,287.72,389.34,286.59,390.64Z"/><path class="cls-1" d="M317.05,374.23a7.27,7.27,0,0,0-6.26,3.55,5.09,5.09,0,0,0-2-2.62,6.69,6.69,0,0,0-3.69-.93,7.09,7.09,0,0,0-3.61.91,7.17,7.17,0,0,0-2.53,2.39v-2.84h-3.08V395h3.44V384.44a12.6,12.6,0,0,1,.55-4.24,4.38,4.38,0,0,1,1.78-2.23,5,5,0,0,1,2.69-.76,3.19,3.19,0,0,1,2.75,1.14,5.82,5.82,0,0,1,.84,3.44V395h3.43V383.18c0-2.09.47-3.6,1.41-4.55a4.81,4.81,0,0,1,3.55-1.42,3.75,3.75,0,0,1,2.06.55,2.86,2.86,0,0,1,1.21,1.46,9.12,9.12,0,0,1,.34,3V395h3.42V381c0-2.31-.54-4-1.63-5.14A6.16,6.16,0,0,0,317.05,374.23Z"/><path class="cls-1" d="M343.66,377.1a7.39,7.39,0,0,0-2.74-2.12,8.6,8.6,0,0,0-3.55-.75,6.79,6.79,0,0,0-5.55,2.73V367h-3.44v28h3.19v-2.54a6.44,6.44,0,0,0,5.63,3,8,8,0,0,0,6.18-2.84q2.58-2.85,2.58-8.05a13.53,13.53,0,0,0-.61-4.13A10.32,10.32,0,0,0,343.66,377.1Zm-2.85,13.53a4.91,4.91,0,0,1-8.28-.69,10.42,10.42,0,0,1-1-5.27,8.6,8.6,0,0,1,1.64-5.66,5,5,0,0,1,3.9-2,4.81,4.81,0,0,1,3.81,1.89c1,1.26,1.57,3.22,1.57,5.86S341.9,389.33,340.81,390.63Z"/><rect class="cls-1" x="350.16" y="374.69" width="3.44" height="20.27"/><rect class="cls-1" x="350.16" y="366.98" width="3.44" height="3.95"/><path class="cls-1" d="M375.24,386.46v-4.58a20.08,20.08,0,0,0-.17-3.17,5.4,5.4,0,0,0-1.07-2.33,5.59,5.59,0,0,0-2.39-1.54,12.12,12.12,0,0,0-4.22-.61,13.5,13.5,0,0,0-4.6.72,6.51,6.51,0,0,0-3,2,8.33,8.33,0,0,0-1.51,3.48l3.36.46a5.21,5.21,0,0,1,1.71-3,6.11,6.11,0,0,1,3.58-.85,5.73,5.73,0,0,1,3.91,1.17,3.79,3.79,0,0,1,1,3c0,.12,0,.42,0,.89a31.06,31.06,0,0,1-6.12,1.19,23.78,23.78,0,0,0-3.06.51,8.27,8.27,0,0,0-2.46,1.13,5.56,5.56,0,0,0-2.46,4.69,5.41,5.41,0,0,0,1.79,4.17,7.38,7.38,0,0,0,5.14,1.63,10.65,10.65,0,0,0,3.78-.66,12.88,12.88,0,0,0,3.68-2.29,7.23,7.23,0,0,0,.69,2.5h3.58a7.57,7.57,0,0,1-.86-2.44A47.69,47.69,0,0,1,375.24,386.46Zm-3.48-.42a8.31,8.31,0,0,1-.55,3.44,5.3,5.3,0,0,1-2.27,2.37,7.08,7.08,0,0,1-3.53.87,4.44,4.44,0,0,1-3-.91,3,3,0,0,1-.57-3.93,3,3,0,0,1,1.36-1.11,12.88,12.88,0,0,1,3-.69,24.59,24.59,0,0,0,5.61-1.3Z"/><path class="cls-1" d="M395.77,376.62a5.29,5.29,0,0,0-2.3-1.73,8.41,8.41,0,0,0-3.37-.66,7.28,7.28,0,0,0-6.45,3.34v-2.88h-3.09V395H384V383.89q0-3.9,1.59-5.29a5.56,5.56,0,0,1,3.79-1.39,4.49,4.49,0,0,1,2.4.62,3.32,3.32,0,0,1,1.42,1.66,9.43,9.43,0,0,1,.4,3.14V395H397V382.49a19.44,19.44,0,0,0-.19-3.34A6.5,6.5,0,0,0,395.77,376.62Z"/><path class="cls-1" d="M410.53,374.23a9.44,9.44,0,0,0-6.38,2.25Q401,379.2,401,384.82c0,3.42.87,6.05,2.62,7.86a9.13,9.13,0,0,0,6.89,2.73,9.93,9.93,0,0,0,4.89-1.24,8.18,8.18,0,0,0,3.41-3.48,13.29,13.29,0,0,0,1.18-6.15,10.41,10.41,0,0,0-2.65-7.57A9.09,9.09,0,0,0,410.53,374.23Zm4.25,16.41a5.65,5.65,0,0,1-8.53,0q-1.69-1.93-1.7-5.83t1.7-5.82a5.66,5.66,0,0,1,8.52,0,8.37,8.37,0,0,1,1.71,5.7C416.48,387.37,415.91,389.34,414.78,390.64Z"/><path class="cls-1" d="M6.13,309.23a3.52,3.52,0,0,0-1.95,2.82v3.3c0,1,.55,1.47,1.64,1.47H22.59c1.29,0,1.94-.53,1.94-1.61v-3.16a3.38,3.38,0,0,0-1.93-2.82,6,6,0,0,1-2.88-5.48V238.46l31.14,76.61A3.19,3.19,0,0,0,54,317.32h3.31a2,2,0,0,0,2.18-2.25V220.54a6.08,6.08,0,0,1,2.92-5.41,3.51,3.51,0,0,0,1.88-2.88V209c0-1-.55-1.48-1.65-1.48h-17q-1.95,0-1.95,1.62v3.1a3.42,3.42,0,0,0,1.95,2.89,6,6,0,0,1,2.86,5.42V266.7l-23-56.9a4.07,4.07,0,0,0-1.2-1.87,4.69,4.69,0,0,0-2.32-.39H6.13q-1.95,0-1.95,1.62v3.09a3.41,3.41,0,0,0,2,2.88A6,6,0,0,1,9,220.54v83.21A6.16,6.16,0,0,1,6.13,309.23Z"/><path class="cls-1" d="M94.26,215.13a3.56,3.56,0,0,0,2-2.88V209c0-1-.56-1.48-1.66-1.48H71.14q-2,0-2,1.62v3.09a3.54,3.54,0,0,0,2,2.88,6,6,0,0,1,2.86,5.4v72.28q0,11.37,7,18.4t18.09,7q11,0,17.87-7.09t6.83-19.67V220.53a6,6,0,0,1,2.85-5.4,3.54,3.54,0,0,0,1.95-2.88V209c0-1-.55-1.48-1.65-1.48H110.25q-1.95,0-2,1.62v3.09a3.54,3.54,0,0,0,2,2.88,6,6,0,0,1,2.86,5.4V291q0,17.15-11.34,17.14-10.36,0-10.36-14.61v-73A6,6,0,0,1,94.26,215.13Z"/><path class="cls-1" d="M136.08,308.81c-1.66,1.17-2.48,2.25-2.48,3.24v3.09q0,1.68,1.8,1.68h51.42v-25.3c0-1.17-.63-1.75-1.88-1.75h-3.22c-1.31,0-2.21.84-2.71,2.53q-3.22,11.18-5.4,13.67t-7.81,2.49H155.67V264h3a7.6,7.6,0,0,1,4.35,1.08c1.06.73,2,2.76,2.93,6.08a11.39,11.39,0,0,0,1.2,3.27,2,2,0,0,0,1.58.53h3.45c1.2,0,1.8-.56,1.8-1.69V246.76c0-1.17-.65-1.76-1.95-1.76h-3.3a2.49,2.49,0,0,0-1.35.21,8.54,8.54,0,0,0-.83,2.18q-1.8,6.12-3,7.27c-.8.78-2.28,1.16-4.43,1.16h-3.45V216.05h9.46q6.45,0,8.59,3.9a28,28,0,0,1,3,9.38c.15,1.31.82,2,2,2h2.78a3.44,3.44,0,0,0,1.92-.32c.22-.21.33-.85.33-1.93V208.39c0-.85-.82-1.27-2.47-1.27-.45,0-1.56.07-3.31.21-2,.14-3.28.21-4,.21H135.4c-1.2,0-1.8.45-1.8,1.34v3.37a3.35,3.35,0,0,0,1.88,2.81,6.13,6.13,0,0,1,2.77,5.48v83.21A5.87,5.87,0,0,1,136.08,308.81Z"/><path class="cls-1" d="M214.9,310.57q-11,0-14-18.41a29.28,29.28,0,0,0-1.17-5.59,1.69,1.69,0,0,0-1.68-.81h-3.23c-1.35,0-2,.89-2,2.67v26.5a1.67,1.67,0,0,0,1.88,1.89h3.75a3.16,3.16,0,0,0,1.43-.5,4.19,4.19,0,0,1,1.95-.71,8.92,8.92,0,0,1,2.78.78,31.75,31.75,0,0,0,10.73,2.26q10.29,0,17.75-8.36t7.47-21.72A38.92,38.92,0,0,0,236,270.19q-4.47-8.46-16.1-19.64-9.09-8.72-12.13-14.09a21.32,21.32,0,0,1-3-10.51,12.5,12.5,0,0,1,2.59-7.8,8.24,8.24,0,0,1,6.87-3.37q8,0,11.49,15.25a28.88,28.88,0,0,0,1.46,5.1c.27.44.86.66,1.76.66h3.46c1.1,0,1.65-.58,1.65-1.75V210.77c0-1.26-.73-1.89-2.18-1.89h-2.78a4.51,4.51,0,0,0-2.25.5,3.17,3.17,0,0,1-1.65.58,8.77,8.77,0,0,1-2.85-1,21.22,21.22,0,0,0-8.86-2.19q-9,0-15.28,7.52t-6.26,19.18a32.73,32.73,0,0,0,2,11.6,35.72,35.72,0,0,0,5.26,9.45,134,134,0,0,0,11,11.77q10,9.91,13.47,15.75a24.16,24.16,0,0,1,3.49,12.65,19.07,19.07,0,0,1-3.26,11.24A10.4,10.4,0,0,1,214.9,310.57Z"/><path class="cls-1" d="M283.88,215.69c2.41,0,4.08.63,5,1.87s1.88,3.87,2.78,7.9a41.54,41.54,0,0,0,1.09,4.57c.22.61.91.91,2.06.91h2.86c1.3,0,1.95-.67,1.95-2v-21c0-1.17-.68-1.75-2-1.75q-.45,0-4.95.63c-2,.33-3.61.58-5,.77H261.14a68.87,68.87,0,0,1-9.31-.91,42.21,42.21,0,0,0-5.33-.56,2.11,2.11,0,0,0-2.4,2.39v20.45c0,1.36.85,2,2.55,2h2.93c.95,0,1.47-.39,1.57-1.19q1.42-8.85,3.19-11.46a6.14,6.14,0,0,1,5.45-2.6h3.3v88.06a6.17,6.17,0,0,1-2.85,5.48,3.49,3.49,0,0,0-1.95,2.82v3.3q0,1.47,1.65,1.47h23.42c1.3,0,1.95-.53,1.95-1.61v-3.16a3.39,3.39,0,0,0-1.95-2.82,6.06,6.06,0,0,1-2.85-5.48V215.69Z"/><path class="cls-1" d="M305.8,309.23a3.52,3.52,0,0,0-1.95,2.82v3.3q0,1.47,1.65,1.47h23.42c1.3,0,2-.53,2-1.61v-3.16a3.4,3.4,0,0,0-2-2.82,6.06,6.06,0,0,1-2.85-5.48V265.66a7.31,7.31,0,0,1,5.07,2c1.32,1.26,2.54,4,3.64,8.29l10.27,38.64a2.67,2.67,0,0,0,2.77,2.26h15c1.1,0,1.65-.51,1.65-1.54v-4a1.45,1.45,0,0,0-.68-1.33,9.82,9.82,0,0,1-3.34-2.85,20.52,20.52,0,0,1-2.06-5.8L352.87,279q-1.72-6.88-4.92-10.43a28,28,0,0,0-9.34-6.36q20.94-6.18,20.94-27.34,0-13.29-8.71-20.31t-25.37-7H305.8q-1.95,0-1.95,1.62v3.09a3.41,3.41,0,0,0,1.95,2.88,6,6,0,0,1,2.85,5.41v83.21A6.17,6.17,0,0,1,305.8,309.23Zm20.27-93.18q8,0,11.9,3.76t3.86,15.7q0,12.23-3.82,17c-2.56,3.19-6.53,4.78-11.94,4.78Z"/><path class="cls-1" d="M399.26,318.23q13.29,0,21.36-14.12t8.07-42.28q0-27.6-8.15-41.68t-22-14.08q-14.79,0-22.56,15.27t-7.77,41.34q0,26.06,7.7,40.8T399.26,318.23ZM388.11,243q.94-14.82,2.18-19.91t3.45-7.06a7.33,7.33,0,0,1,5-2,6.66,6.66,0,0,1,5.4,2.56q2.1,2.56,3.9,11.45a117.31,117.31,0,0,1,1.8,22.65q0,15.24-1.2,33.5t-4,22.33c-1.88,2.71-3.94,4.07-6.2,4.07q-5.7,0-8.48-8.5t-2.78-28.37Q387.17,257.83,388.11,243Z"/><path class="cls-1" d="M194.25,187.42a1.61,1.61,0,0,0-.93,1.35v1.29a.92.92,0,0,0,1.06,1h20.41V178.94c0-.5-.29-.75-.86-.75h-1.51c-.3,0-.49.07-.56.22a9.75,9.75,0,0,0-.37,1.68,11.56,11.56,0,0,1-2,5.38,4.62,4.62,0,0,1-3.73,1.57h-2.73V144.61a3.08,3.08,0,0,1,1.22-2.61,1.7,1.7,0,0,0,.83-1.39v-1.56a.62.62,0,0,0-.7-.71h-10c-.55,0-.83.26-.83.78v1.49a1.67,1.67,0,0,0,.83,1.39,3,3,0,0,1,1.22,2.61v40.16A2.94,2.94,0,0,1,194.25,187.42Z"/><path class="cls-1" d="M239.71,144.42q-3.48-6.79-9.41-6.79-6.31,0-9.63,7.37T217.36,165q0,12.57,3.28,19.69t10,7.12q5.67,0,9.12-6.82t3.44-20.4Q243.18,151.22,239.71,144.42Zm-5.08,30.93q-.52,8.82-1.72,10.78c-.8,1.31-1.68,2-2.64,2-1.63,0-2.83-1.36-3.62-4.1s-1.19-7.3-1.19-13.69q0-7.7.4-14.84a76.86,76.86,0,0,1,.93-9.61,7,7,0,0,1,1.48-3.41,3,3,0,0,1,2.13-.95,2.73,2.73,0,0,1,2.3,1.24q.9,1.25,1.67,5.52a64.14,64.14,0,0,1,.77,10.93Q235.14,166.55,234.63,175.35Z"/><path class="cls-1" d="M432.35,337h-413c-5.33,0-11.51-.87-16.79,0a4.57,4.57,0,0,1-.74,0,1.49,1.49,0,0,0,0,3h413c5.34,0,11.51.87,16.8,0a5.93,5.93,0,0,1,.73,0A1.49,1.49,0,0,0,432.35,337Z"/><path class="cls-1" d="M433.86,1.82V1.68A1.52,1.52,0,0,0,432.35.16H13.68L8.1.13c-1.87,0-3.73,0-5.6,0H1.78A1.52,1.52,0,0,0,.27,1.68V163.59c0,.69,0,1.4-.06,2.13a24.38,24.38,0,0,0,.07,4.68v.14a1.51,1.51,0,0,0,1.51,1.51H132.49a1.51,1.51,0,0,0,0-3H3.3V4.24c0-.14,0-.34,0-.56s0-.32,0-.49H425.86c.6,0,1.23,0,1.86.05s1.33,0,2,0c.4,0,.77,0,1.12,0V168c0,.15,0,.35,0,.57s0,.32,0,.49H302.34a1.51,1.51,0,0,0,0,3h130a1.51,1.51,0,0,0,1.51-1.51V8.63c0-.69,0-1.41.07-2.13A25.21,25.21,0,0,0,433.86,1.82Z"/><path class="cls-1" d="M110.94,135.32l1.81,3.4,3.65-4a3.41,3.41,0,0,1,5.7,1.05l.15.39c1,2.51,9.44,2.63,11,.44l3-8.76a2.38,2.38,0,0,0-2.27-3.14h-5.6l9.06-9.75a8.92,8.92,0,0,0,1.16-7.9l-1.28-3.91,4.3-5.89a1.9,1.9,0,0,0-.78-2.86L135,91.83l-1.53-5.75a2.55,2.55,0,0,0-4.25-1.16L106.63,107l-16,17a15.7,15.7,0,0,0-4.2,12.5l.24,2.23,38.64-27.47-13.7,17.36A6.17,6.17,0,0,0,110.94,135.32Z"/><path class="cls-1" d="M170.82,103.56l.66,2.73,16.81-11.48c5.36-3.65,11.79,2.74,8.48,8.43h0a6.43,6.43,0,0,0-.14,6.18l13.83,26.63H215l-.84-49.31a6.42,6.42,0,0,1,1.17-3.8l5.12-7.22a6.42,6.42,0,0,0-.88-8.38l-3-2.69a6.41,6.41,0,0,1-1.17-7.93l4.78-8.15-3.36-.88A6.14,6.14,0,0,1,212.48,43l-.23-1.07a6,6,0,0,0-9.92-3.26L153.62,84.2a6.39,6.39,0,0,0-.27,9l7.24,7.68L158.68,95a1.51,1.51,0,0,1,.33-1.47l15.52-16.29-3.8,17.37A20.11,20.11,0,0,0,170.82,103.56Z"/><path class="cls-1" d="M84.32,111.42a39.32,39.32,0,0,1,7.17,4.29c.73.51,1.45,1,2.18,1.49a1.41,1.41,0,0,0,.78.24,1.57,1.57,0,0,0,1.09-.44q5.55-5.5,11.07-11c7.25-7.24,14.74-14.73,22.25-21.93a14,14,0,0,1,11.91-3.9c3.62.55,6.35,2.69,9,4.76a1.66,1.66,0,0,0,1,.37,1.49,1.49,0,0,0,1-.42l47.11-45.71,1.53-1.51a40.81,40.81,0,0,1,6.35-5.52,22.87,22.87,0,0,1,12.43-3.63,23.44,23.44,0,0,1,16.21,6.45c4.66,4.42,9.34,9,13.88,13.39q3.44,3.36,6.89,6.7l8,7.78c5.23,5.1,10.64,10.38,16.05,15.47l.44.43a1.58,1.58,0,0,0,1.08.43,1.36,1.36,0,0,0,.79-.24l6.18-4.24c.47-.32.95-.67,1.43-1,2-1.46,4.09-3,6.33-3.21a6.28,6.28,0,0,1,.75,0c3.38,0,5.89,2.54,8.31,5l1.3,1.29,1.3,1.26-6.61-5.15a49.76,49.76,0,0,1-4.67,23.12c-5.58,11.33-28.09,44.95-28.09,44.95l2.91,5.77,7.76-8.88,6.83,14.17a4,4,0,0,0,6.36,1L311,134.63l-10.64,2.91c-3.65,1-6.5-2.94-4.08-5.63l10.36-11.49-6.51-1.08a3.54,3.54,0,0,1-3-4.42l5.54-18.23a4,4,0,0,1,6.12-1.82l14.35,10.45-9.3-14,8.42,1.94-7-8.47,25.83,25h-2.53l14.66,13.71-2.36-13.71a19.65,19.65,0,0,1,3.91-.4A20.26,20.26,0,0,1,368.61,115l4.61,4.37a1.65,1.65,0,0,0-.23,1.73l11.37,26.67a1.64,1.64,0,0,0,.55.7l14.83,11.12a1.71,1.71,0,0,0,2.66-1.86l-4.59-15,14.81,14a1.48,1.48,0,0,0,1,.42,1.59,1.59,0,0,0,1.45-1,1.45,1.45,0,0,0-.37-1.6L394,134.91l-7.69-7.31q-7.81-7.44-15.66-14.85a23.28,23.28,0,0,0-16-6.39,22.36,22.36,0,0,0-10.28,2.5L309.25,74.79c-.48-.46-1-1-1.44-1.44-2.43-2.48-5.18-5.29-8.89-5.86a9.83,9.83,0,0,0-1.52-.12c-3.4,0-6.06,1.83-8.64,3.6l-6.86,4.71L261.72,56.16l-8-7.78Q245.75,40.69,237.79,33a26.38,26.38,0,0,0-23.42-7.13c-5.27,1-9.88,3.64-14.94,8.55l-46.3,44.92c-.29.29-.63.58-1,.87a20.58,20.58,0,0,0-1.6,1.49A22.62,22.62,0,0,0,144.48,78a16.64,16.64,0,0,0-5.78-1,16.94,16.94,0,0,0-6.46,1.27c-3.22,1.33-5.56,3.67-7.83,5.94l-.84.83L94.29,114l-1.14-.79a59,59,0,0,0-5.66-3.61,22.9,22.9,0,0,0-10.72-2.66,22.43,22.43,0,0,0-5.72.73c-5.53,1.44-9.27,4.94-13.23,8.63l-41,38.28a1.43,1.43,0,0,0-.37,1.59,1.58,1.58,0,0,0,1.45,1,1.52,1.52,0,0,0,1-.41l4.18-3.91L52,129.94a2.48,2.48,0,0,1,4,2.45l-2,9.59a2.48,2.48,0,0,0,4.19,2.25l22-22.34H73.43l-2.15-11.15a19.94,19.94,0,0,1,5.57-.79A19.62,19.62,0,0,1,84.32,111.42ZM32.59,144,57.15,121c.76-.7,1.51-1.44,2.27-2.18a47.91,47.91,0,0,1,6.3-5.51,21,21,0,0,1,3.43-1.85Z"/><path class="cls-1" d="M14.13,78.73a1.4,1.4,0,0,0-1.34,1.09,1.26,1.26,0,0,0,.69,1.44l45.93,22.52a1.47,1.47,0,0,0,.61.14,1.4,1.4,0,0,0,1.34-1.08,1.27,1.27,0,0,0-.7-1.44L14.73,78.88A1.27,1.27,0,0,0,14.13,78.73Z"/><path class="cls-1" d="M16,112.66l17.38,7.63a1.33,1.33,0,0,0,.55.12,1.43,1.43,0,0,0,1.37-1.13,1.23,1.23,0,0,0-.74-1.41l-17.38-7.62a1.33,1.33,0,0,0-.55-.12,1.42,1.42,0,0,0-1.37,1.12A1.23,1.23,0,0,0,16,112.66Z"/><path class="cls-1" d="M26.7,57.09a1.52,1.52,0,0,0-1.44,1.13,1.47,1.47,0,0,0,.66,1.68l8.86,5.5a1.54,1.54,0,0,0,.79.23A1.52,1.52,0,0,0,37,64.5a1.48,1.48,0,0,0-.65-1.69l-8.87-5.49A1.48,1.48,0,0,0,26.7,57.09Z"/><path class="cls-1" d="M60,74.28a1.34,1.34,0,0,0-1.27,1,1.32,1.32,0,0,0,.57,1.51L89,95.58a1.31,1.31,0,0,0,.71.21,1.35,1.35,0,0,0,1.27-1,1.31,1.31,0,0,0-.57-1.51L60.74,74.49A1.28,1.28,0,0,0,60,74.28Z"/><path class="cls-1" d="M85,63.68a1.34,1.34,0,0,0,.5,1.54l22.16,16a1.33,1.33,0,0,0,.76.25h0a1.32,1.32,0,0,0,1.24-1,1.35,1.35,0,0,0-.5-1.54L87,63a1.26,1.26,0,0,0-.76-.25A1.32,1.32,0,0,0,85,63.68Z"/><path class="cls-1" d="M34.73,24a1.3,1.3,0,0,0-.77-.26,1.32,1.32,0,0,0-1.23.94,1.36,1.36,0,0,0,.48,1.54L69,52.8a1.27,1.27,0,0,0,.77.27A1.32,1.32,0,0,0,71,52.13a1.38,1.38,0,0,0-.48-1.55Z"/><path class="cls-1" d="M100.8,43.11h0a1.4,1.4,0,0,0,1.27-.86,1.3,1.3,0,0,0-.29-1.43L88.84,27.69a1.32,1.32,0,0,0-.94-.4,1.39,1.39,0,0,0-1.26.86,1.31,1.31,0,0,0,.28,1.44l13,13.12A1.3,1.3,0,0,0,100.8,43.11Z"/><path class="cls-1" d="M108.47,50.35a1.39,1.39,0,0,0-1.28.89,1.27,1.27,0,0,0,.33,1.42l16.84,15.79a1.37,1.37,0,0,0,2.2-.52,1.27,1.27,0,0,0-.33-1.42L109.38,50.72A1.35,1.35,0,0,0,108.47,50.35Z"/><path class="cls-1" d="M130.29,38.27a1.36,1.36,0,0,0-1.22.8,1.34,1.34,0,0,0,.19,1.46l18.08,21.81a1.26,1.26,0,0,0,1,.47h0a1.39,1.39,0,0,0,1-2.26L131.27,38.74A1.28,1.28,0,0,0,130.29,38.27Z"/><path class="cls-1" d="M167.84,51.87a1.42,1.42,0,0,0,1.22-.71,1.32,1.32,0,0,0-.06-1.33L149.5,19.07a1.33,1.33,0,0,0-1.13-.63,1.4,1.4,0,0,0-1.22.72,1.28,1.28,0,0,0,0,1.32l19.51,30.77A1.32,1.32,0,0,0,167.84,51.87Z"/><path class="cls-1" d="M186.68,34.74a1.36,1.36,0,0,0,1.14-.59,1.23,1.23,0,0,0,.1-1.18l-7.27-17.56a1.38,1.38,0,0,0-1.29-.85,1.35,1.35,0,0,0-1.14.59,1.23,1.23,0,0,0-.1,1.18l7.27,17.55A1.37,1.37,0,0,0,186.68,34.74Z"/><path class="cls-1" d="M250.13,35.72a1.35,1.35,0,0,0,1.29-.9L258,16.29a1.24,1.24,0,0,0-.15-1.17,1.38,1.38,0,0,0-2.41.34L248.86,34a1.27,1.27,0,0,0,.15,1.17A1.37,1.37,0,0,0,250.13,35.72Z"/><path class="cls-1" d="M286.82,17.64a1.3,1.3,0,0,0-1.12.64L266.19,49.84a1.28,1.28,0,0,0,0,1.32,1.4,1.4,0,0,0,1.22.72,1.31,1.31,0,0,0,1.12-.64L288,19.67a1.28,1.28,0,0,0,0-1.32A1.42,1.42,0,0,0,286.82,17.64Z"/><path class="cls-1" d="M285.66,61.74a1.36,1.36,0,0,0,1.22.81,1.24,1.24,0,0,0,1-.48l20-24.11a1.38,1.38,0,0,0,.19-1.46,1.36,1.36,0,0,0-1.22-.8,1.25,1.25,0,0,0-1,.47l-20,24.12A1.35,1.35,0,0,0,285.66,61.74Z"/><path class="cls-1" d="M309.35,68a1.38,1.38,0,0,0,1.28.88,1.34,1.34,0,0,0,.91-.36l18.27-17a1.27,1.27,0,0,0,.33-1.42,1.39,1.39,0,0,0-1.28-.89,1.3,1.3,0,0,0-.91.37l-18.27,17A1.29,1.29,0,0,0,309.35,68Z"/><path class="cls-1" d="M353.12,24.18a1.33,1.33,0,0,0-.9.36L338.38,37.31a1.27,1.27,0,0,0-.33,1.42,1.38,1.38,0,0,0,1.28.89,1.36,1.36,0,0,0,.91-.36l13.83-12.77a1.26,1.26,0,0,0,.34-1.42A1.39,1.39,0,0,0,353.12,24.18Z"/><path class="cls-1" d="M327.15,79.26a1.32,1.32,0,0,0,1.23.93,1.25,1.25,0,0,0,.77-.27L347,66.36a1.36,1.36,0,0,0,.47-1.55,1.26,1.26,0,0,0-2-.66L327.62,77.71A1.37,1.37,0,0,0,327.15,79.26Z"/><path class="cls-1" d="M398,23.82a1.4,1.4,0,0,0-.85.3L363.82,50.41a1.25,1.25,0,0,0-.43,1.4,1.43,1.43,0,0,0,1.34.93,1.36,1.36,0,0,0,.84-.29l33.34-26.29a1.24,1.24,0,0,0,.43-1.4A1.43,1.43,0,0,0,398,23.82Z"/><path class="cls-1" d="M345.5,94.33a1.32,1.32,0,0,0,2,.81l29.61-17.91a1.32,1.32,0,0,0,.6-1.5,1.37,1.37,0,0,0-1.29-1,1.32,1.32,0,0,0-.69.2L346.1,92.83A1.33,1.33,0,0,0,345.5,94.33Z"/><path class="cls-1" d="M415.77,53.33a1.33,1.33,0,0,0-.71.21L398.57,64.12a1.32,1.32,0,0,0-.57,1.51,1.3,1.3,0,0,0,2,.77l16.49-10.57a1.32,1.32,0,0,0,.56-1.51A1.34,1.34,0,0,0,415.77,53.33Z"/><path class="cls-1" d="M415.75,83.7a1.47,1.47,0,0,0-.61.14l-20.3,10.09a1.26,1.26,0,0,0-.69,1.44,1.38,1.38,0,0,0,1.33,1.08h0a1.43,1.43,0,0,0,.61-.14L416.4,86.22a1.27,1.27,0,0,0,.69-1.44A1.4,1.4,0,0,0,415.75,83.7Z"/><path class="cls-1" d="M403.57,117.66a1.28,1.28,0,0,0,1.25,1.1,1.31,1.31,0,0,0,.47-.09l17.38-6.38a1.36,1.36,0,0,0,.87-1.54,1.28,1.28,0,0,0-1.26-1.1,1.25,1.25,0,0,0-.46.09l-17.38,6.38A1.35,1.35,0,0,0,403.57,117.66Z"/><circle class="cls-1" cx="315.66" cy="23.54" r="3.64"/><path class="cls-1" d="M391.32,65.8a3.75,3.75,0,1,0,3.74,3.75A3.75,3.75,0,0,0,391.32,65.8Z"/><path class="cls-1" d="M377.32,102.59a3.74,3.74,0,1,0,3.74-3.73A3.74,3.74,0,0,0,377.32,102.59Z"/><circle class="cls-1" cx="115.96" cy="23.56" r="3.51"/><text class="cls-2" transform="translate(2.63 521.43) scale(1.07 1)">GOURMET</text></g></g></svg>