<svg xmlns="http://www.w3.org/2000/svg" viewBox="0 0 434.13 452.39"><defs><style>.cls-1{fill:#1d1d1b;stroke:#000;stroke-miterlimit:10;stroke-width:0.26px;}.cls-2{fill:#bd1839;}</style></defs><g id="Capa_2" data-name="Capa 2"><g id="Capa_1-2" data-name="Capa 1"><path class="cls-1" d="M6.13,309.23a3.52,3.52,0,0,0-1.95,2.82v3.3c0,1,.55,1.47,1.64,1.47H22.59c1.29,0,1.94-.53,1.94-1.61v-3.16a3.38,3.38,0,0,0-1.93-2.82,6,6,0,0,1-2.88-5.48V238.46l31.14,76.61A3.19,3.19,0,0,0,54,317.32h3.31a2,2,0,0,0,2.18-2.25V220.54a6.08,6.08,0,0,1,2.92-5.41,3.51,3.51,0,0,0,1.88-2.88V209c0-1-.55-1.48-1.65-1.48h-17q-1.95,0-1.95,1.62v3.1a3.42,3.42,0,0,0,1.95,2.89,6,6,0,0,1,2.86,5.42V266.7l-23-56.9a4.07,4.07,0,0,0-1.2-1.87,4.69,4.69,0,0,0-2.32-.39H6.13q-1.95,0-1.95,1.62v3.09a3.41,3.41,0,0,0,2,2.88A6,6,0,0,1,9,220.54v83.21A6.16,6.16,0,0,1,6.13,309.23Z"/><path class="cls-1" d="M94.26,215.13a3.56,3.56,0,0,0,2-2.88V209c0-1-.56-1.48-1.66-1.48H71.14q-2,0-2,1.62v3.09a3.54,3.54,0,0,0,2,2.88,6,6,0,0,1,2.86,5.4v72.28q0,11.37,7,18.4t18.09,7q11,0,17.87-7.09t6.83-19.67V220.53a6,6,0,0,1,2.85-5.4,3.54,3.54,0,0,0,1.95-2.88V209c0-1-.55-1.48-1.65-1.48H110.25q-1.95,0-2,1.62v3.09a3.54,3.54,0,0,0,2,2.88,6,6,0,0,1,2.86,5.4V291q0,17.15-11.34,17.14-10.36,0-10.36-14.61v-73A6,6,0,0,1,94.26,215.13Z"/><path class="cls-1" d="M136.08,308.81c-1.66,1.17-2.48,2.25-2.48,3.24v3.09q0,1.68,1.8,1.68h51.42v-25.3c0-1.17-.63-1.75-1.88-1.75h-3.22c-1.31,0-2.21.84-2.71,2.53q-3.22,11.18-5.4,13.67t-7.81,2.49H155.67V264h3a7.6,7.6,0,0,1,4.35,1.08c1.06.73,2,2.76,2.93,6.08a11.39,11.39,0,0,0,1.2,3.27,2,2,0,0,0,1.58.53h3.45c1.2,0,1.8-.56,1.8-1.69V246.76c0-1.17-.65-1.76-1.95-1.76h-3.3a2.49,2.49,0,0,0-1.35.21,8.54,8.54,0,0,0-.83,2.18q-1.8,6.12-3,7.27c-.8.78-2.28,1.16-4.43,1.16h-3.45V216.05h9.46q6.45,0,8.59,3.9a28,28,0,0,1,3,9.38c.15,1.31.82,2,2,2h2.78a3.44,3.44,0,0,0,1.92-.32c.22-.21.33-.85.33-1.93V208.39c0-.85-.82-1.27-2.47-1.27-.45,0-1.56.07-3.31.21-2,.14-3.28.21-4,.21H135.4c-1.2,0-1.8.45-1.8,1.34v3.37a3.35,3.35,0,0,0,1.88,2.81,6.13,6.13,0,0,1,2.77,5.48v83.21A5.87,5.87,0,0,1,136.08,308.81Z"/><path class="cls-1" d="M214.9,310.57q-11,0-14-18.41a29.28,29.28,0,0,0-1.17-5.59,1.69,1.69,0,0,0-1.68-.81h-3.23c-1.35,0-2,.89-2,2.67v26.5a1.67,1.67,0,0,0,1.88,1.89h3.75a3.16,3.16,0,0,0,1.43-.5,4.19,4.19,0,0,1,1.95-.71,8.92,8.92,0,0,1,2.78.78,31.75,31.75,0,0,0,10.73,2.26q10.29,0,17.75-8.36t7.47-21.72A38.92,38.92,0,0,0,236,270.19q-4.47-8.46-16.1-19.64-9.09-8.72-12.13-14.09a21.32,21.32,0,0,1-3-10.51,12.5,12.5,0,0,1,2.59-7.8,8.24,8.24,0,0,1,6.87-3.37q8,0,11.49,15.25a28.88,28.88,0,0,0,1.46,5.1c.27.44.86.66,1.76.66h3.46c1.1,0,1.65-.58,1.65-1.75V210.77c0-1.26-.73-1.89-2.18-1.89h-2.78a4.51,4.51,0,0,0-2.25.5,3.17,3.17,0,0,1-1.65.58,8.77,8.77,0,0,1-2.85-1,21.22,21.22,0,0,0-8.86-2.19q-9,0-15.28,7.52t-6.26,19.18a32.73,32.73,0,0,0,2,11.6,35.72,35.72,0,0,0,5.26,9.45,134,134,0,0,0,11,11.77q10,9.91,13.47,15.75a24.16,24.16,0,0,1,3.49,12.65,19.07,19.07,0,0,1-3.26,11.24A10.4,10.4,0,0,1,214.9,310.57Z"/><path class="cls-1" d="M283.88,215.69c2.41,0,4.08.63,5,1.87s1.88,3.87,2.78,7.9a41.54,41.54,0,0,0,1.09,4.57c.22.61.91.91,2.06.91h2.86c1.3,0,1.95-.67,1.95-2v-21c0-1.17-.68-1.75-2-1.75q-.45,0-4.95.63c-2,.33-3.61.58-5,.77H261.14a68.87,68.87,0,0,1-9.31-.91,42.21,42.21,0,0,0-5.33-.56,2.11,2.11,0,0,0-2.4,2.39v20.45c0,1.36.85,2,2.55,2h2.93c.95,0,1.47-.39,1.57-1.19q1.42-8.85,3.19-11.46a6.14,6.14,0,0,1,5.45-2.6h3.3v88.06a6.17,6.17,0,0,1-2.85,5.48,3.49,3.49,0,0,0-1.95,2.82v3.3q0,1.47,1.65,1.47h23.42c1.3,0,1.95-.53,1.95-1.61v-3.16a3.39,3.39,0,0,0-1.95-2.82,6.06,6.06,0,0,1-2.85-5.48V215.69Z"/><path class="cls-1" d="M305.8,309.23a3.52,3.52,0,0,0-1.95,2.82v3.3q0,1.47,1.65,1.47h23.42c1.3,0,2-.53,2-1.61v-3.16a3.4,3.4,0,0,0-2-2.82,6.06,6.06,0,0,1-2.85-5.48V265.66a7.31,7.31,0,0,1,5.07,2c1.32,1.26,2.54,4,3.64,8.29l10.27,38.64a2.67,2.67,0,0,0,2.77,2.26h15c1.1,0,1.65-.51,1.65-1.54v-4a1.45,1.45,0,0,0-.68-1.33,9.82,9.82,0,0,1-3.34-2.85,20.52,20.52,0,0,1-2.06-5.8L352.87,279q-1.72-6.88-4.92-10.43a28,28,0,0,0-9.34-6.36q20.94-6.18,20.94-27.34,0-13.29-8.71-20.31t-25.37-7H305.8q-1.95,0-1.95,1.62v3.09a3.41,3.41,0,0,0,1.95,2.88,6,6,0,0,1,2.85,5.41v83.21A6.17,6.17,0,0,1,305.8,309.23Zm20.27-93.18q8,0,11.9,3.76t3.86,15.7q0,12.23-3.82,17c-2.56,3.19-6.53,4.78-11.94,4.78Z"/><path class="cls-1" d="M399.26,318.23q13.29,0,21.36-14.12t8.07-42.28q0-27.6-8.15-41.68t-22-14.08q-14.79,0-22.56,15.27t-7.77,41.34q0,26.06,7.7,40.8T399.26,318.23ZM388.11,243q.94-14.82,2.18-19.91t3.45-7.06a7.33,7.33,0,0,1,5-2,6.66,6.66,0,0,1,5.4,2.56q2.1,2.56,3.9,11.45a117.31,117.31,0,0,1,1.8,22.65q0,15.24-1.2,33.5t-4,22.33c-1.88,2.71-3.94,4.07-6.2,4.07q-5.7,0-8.48-8.5t-2.78-28.37Q387.17,257.83,388.11,243Z"/><path class="cls-1" d="M194.25,187.42a1.61,1.61,0,0,0-.93,1.35v1.29a.92.92,0,0,0,1.06,1h20.41V178.94c0-.5-.29-.75-.86-.75h-1.51c-.3,0-.49.07-.56.22a9.75,9.75,0,0,0-.37,1.68,11.56,11.56,0,0,1-2,5.38,4.62,4.62,0,0,1-3.73,1.57h-2.73V144.61a3.08,3.08,0,0,1,1.22-2.61,1.7,1.7,0,0,0,.83-1.39v-1.56a.62.62,0,0,0-.7-.71h-10c-.55,0-.83.26-.83.78v1.49a1.67,1.67,0,0,0,.83,1.39,3,3,0,0,1,1.22,2.61v40.16A2.94,2.94,0,0,1,194.25,187.42Z"/><path class="cls-1" d="M239.71,144.42q-3.48-6.79-9.41-6.79-6.31,0-9.63,7.37T217.36,165q0,12.57,3.28,19.69t10,7.12q5.67,0,9.12-6.82t3.44-20.4Q243.18,151.22,239.71,144.42Zm-5.08,30.93q-.52,8.82-1.72,10.78c-.8,1.31-1.68,2-2.64,2-1.63,0-2.83-1.36-3.62-4.1s-1.19-7.3-1.19-13.69q0-7.7.4-14.84a76.86,76.86,0,0,1,.93-9.61,7,7,0,0,1,1.48-3.41,3,3,0,0,1,2.13-.95,2.73,2.73,0,0,1,2.3,1.24q.9,1.25,1.67,5.52a64.14,64.14,0,0,1,.77,10.93Q235.14,166.55,234.63,175.35Z"/><path class="cls-1" d="M432.35,337h-413c-5.33,0-11.51-.87-16.79,0a4.57,4.57,0,0,1-.74,0,1.49,1.49,0,0,0,0,3h413c5.34,0,11.51.87,16.8,0a5.93,5.93,0,0,1,.73,0A1.49,1.49,0,0,0,432.35,337Z"/><path class="cls-1" d="M433.86,1.82V1.68A1.52,1.52,0,0,0,432.35.16H13.68L8.1.13c-1.87,0-3.73,0-5.6,0H1.78A1.52,1.52,0,0,0,.27,1.68V163.59c0,.69,0,1.4-.06,2.13a24.38,24.38,0,0,0,.07,4.68v.14a1.51,1.51,0,0,0,1.51,1.51H132.49a1.51,1.51,0,0,0,0-3H3.3V4.24c0-.14,0-.34,0-.56s0-.32,0-.49H425.86c.6,0,1.23,0,1.86.05s1.33,0,2,0c.4,0,.77,0,1.12,0V168c0,.15,0,.35,0,.57s0,.32,0,.49H302.34a1.51,1.51,0,0,0,0,3h130a1.51,1.51,0,0,0,1.51-1.51V8.63c0-.69,0-1.41.07-2.13A25.21,25.21,0,0,0,433.86,1.82Z"/><path class="cls-1" d="M110.94,135.32l1.81,3.4,3.65-4a3.41,3.41,0,0,1,5.7,1.05l.15.39c1,2.51,9.44,2.63,11,.44l3-8.76a2.38,2.38,0,0,0-2.27-3.14h-5.6l9.06-9.75a8.92,8.92,0,0,0,1.16-7.9l-1.28-3.91,4.3-5.89a1.9,1.9,0,0,0-.78-2.86L135,91.83l-1.53-5.75a2.55,2.55,0,0,0-4.25-1.16L106.63,107l-16,17a15.7,15.7,0,0,0-4.2,12.5l.24,2.23,38.64-27.47-13.7,17.36A6.17,6.17,0,0,0,110.94,135.32Z"/><path class="cls-1" d="M170.82,103.56l.66,2.73,16.81-11.48c5.36-3.65,11.79,2.74,8.48,8.43h0a6.43,6.43,0,0,0-.14,6.18l13.83,26.63H215l-.84-49.31a6.42,6.42,0,0,1,1.17-3.8l5.12-7.22a6.42,6.42,0,0,0-.88-8.38l-3-2.69a6.41,6.41,0,0,1-1.17-7.93l4.78-8.15-3.36-.88A6.14,6.14,0,0,1,212.48,43l-.23-1.07a6,6,0,0,0-9.92-3.26L153.62,84.2a6.39,6.39,0,0,0-.27,9l7.24,7.68L158.68,95a1.51,1.51,0,0,1,.33-1.47l15.52-16.29-3.8,17.37A20.11,20.11,0,0,0,170.82,103.56Z"/><path class="cls-1" d="M84.32,111.42a39.32,39.32,0,0,1,7.17,4.29c.73.51,1.45,1,2.18,1.49a1.41,1.41,0,0,0,.78.24,1.57,1.57,0,0,0,1.09-.44q5.55-5.5,11.07-11c7.25-7.24,14.74-14.73,22.25-21.93a14,14,0,0,1,11.91-3.9c3.62.55,6.35,2.69,9,4.76a1.66,1.66,0,0,0,1,.37,1.49,1.49,0,0,0,1-.42l47.11-45.71,1.53-1.51a40.81,40.81,0,0,1,6.35-5.52,22.87,22.87,0,0,1,12.43-3.63,23.44,23.44,0,0,1,16.21,6.45c4.66,4.42,9.34,9,13.88,13.39q3.44,3.36,6.89,6.7l8,7.78c5.23,5.1,10.64,10.38,16.05,15.47l.44.43a1.58,1.58,0,0,0,1.08.43,1.36,1.36,0,0,0,.79-.24l6.18-4.24c.47-.32.95-.67,1.43-1,2-1.46,4.09-3,6.33-3.21a6.28,6.28,0,0,1,.75,0c3.38,0,5.89,2.54,8.31,5l1.3,1.29,1.3,1.26-6.61-5.15a49.76,49.76,0,0,1-4.67,23.12c-5.58,11.33-28.09,44.95-28.09,44.95l2.91,5.77,7.76-8.88,6.83,14.17a4,4,0,0,0,6.36,1L311,134.63l-10.64,2.91c-3.65,1-6.5-2.94-4.08-5.63l10.36-11.49-6.51-1.08a3.54,3.54,0,0,1-3-4.42l5.54-18.23a4,4,0,0,1,6.12-1.82l14.35,10.45-9.3-14,8.42,1.94-7-8.47,25.83,25h-2.53l14.66,13.71-2.36-13.71a19.65,19.65,0,0,1,3.91-.4A20.26,20.26,0,0,1,368.61,115l4.61,4.37a1.65,1.65,0,0,0-.23,1.73l11.37,26.67a1.64,1.64,0,0,0,.55.7l14.83,11.12a1.71,1.71,0,0,0,2.66-1.86l-4.59-15,14.81,14a1.48,1.48,0,0,0,1,.42,1.59,1.59,0,0,0,1.45-1,1.45,1.45,0,0,0-.37-1.6L394,134.91l-7.69-7.31q-7.81-7.44-15.66-14.85a23.28,23.28,0,0,0-16-6.39,22.36,22.36,0,0,0-10.28,2.5L309.25,74.79c-.48-.46-1-1-1.44-1.44-2.43-2.48-5.18-5.29-8.89-5.86a9.83,9.83,0,0,0-1.52-.12c-3.4,0-6.06,1.83-8.64,3.6l-6.86,4.71L261.72,56.16l-8-7.78Q245.75,40.69,237.79,33a26.38,26.38,0,0,0-23.42-7.13c-5.27,1-9.88,3.64-14.94,8.55l-46.3,44.92c-.29.29-.63.58-1,.87a20.58,20.58,0,0,0-1.6,1.49A22.62,22.62,0,0,0,144.48,78a16.64,16.64,0,0,0-5.78-1,16.94,16.94,0,0,0-6.46,1.27c-3.22,1.33-5.56,3.67-7.83,5.94l-.84.83L94.29,114l-1.14-.79a59,59,0,0,0-5.66-3.61,22.9,22.9,0,0,0-10.72-2.66,22.43,22.43,0,0,0-5.72.73c-5.53,1.44-9.27,4.94-13.23,8.63l-41,38.28a1.43,1.43,0,0,0-.37,1.59,1.58,1.58,0,0,0,1.45,1,1.52,1.52,0,0,0,1-.41l4.18-3.91L52,129.94a2.48,2.48,0,0,1,4,2.45l-2,9.59a2.48,2.48,0,0,0,4.19,2.25l22-22.34H73.43l-2.15-11.15a19.94,19.94,0,0,1,5.57-.79A19.62,19.62,0,0,1,84.32,111.42ZM32.59,144,57.15,121c.76-.7,1.51-1.44,2.27-2.18a47.91,47.91,0,0,1,6.3-5.51,21,21,0,0,1,3.43-1.85Z"/><path class="cls-1" d="M14.13,78.73a1.4,1.4,0,0,0-1.34,1.09,1.26,1.26,0,0,0,.69,1.44l45.93,22.52a1.47,1.47,0,0,0,.61.14,1.4,1.4,0,0,0,1.34-1.08,1.27,1.27,0,0,0-.7-1.44L14.73,78.88A1.27,1.27,0,0,0,14.13,78.73Z"/><path class="cls-1" d="M16,112.66l17.38,7.63a1.33,1.33,0,0,0,.55.12,1.43,1.43,0,0,0,1.37-1.13,1.23,1.23,0,0,0-.74-1.41l-17.38-7.62a1.33,1.33,0,0,0-.55-.12,1.42,1.42,0,0,0-1.37,1.12A1.23,1.23,0,0,0,16,112.66Z"/><path class="cls-1" d="M60,74.28a1.34,1.34,0,0,0-1.27,1,1.32,1.32,0,0,0,.57,1.51L89,95.58a1.31,1.31,0,0,0,.71.21,1.35,1.35,0,0,0,1.27-1,1.31,1.31,0,0,0-.57-1.51L60.74,74.49A1.28,1.28,0,0,0,60,74.28Z"/><path class="cls-1" d="M85,63.68a1.34,1.34,0,0,0,.5,1.54l22.16,16a1.33,1.33,0,0,0,.76.25h0a1.32,1.32,0,0,0,1.24-1,1.35,1.35,0,0,0-.5-1.54L87,63a1.26,1.26,0,0,0-.76-.25A1.32,1.32,0,0,0,85,63.68Z"/><path class="cls-1" d="M327.15,79.26a1.32,1.32,0,0,0,1.23.93,1.25,1.25,0,0,0,.77-.27L347,66.36a1.36,1.36,0,0,0,.47-1.55,1.26,1.26,0,0,0-2-.66L327.62,77.71A1.37,1.37,0,0,0,327.15,79.26Z"/><path class="cls-1" d="M345.5,94.33a1.32,1.32,0,0,0,2,.81l29.61-17.91a1.32,1.32,0,0,0,.6-1.5,1.37,1.37,0,0,0-1.29-1,1.32,1.32,0,0,0-.69.2L346.1,92.83A1.33,1.33,0,0,0,345.5,94.33Z"/><path class="cls-1" d="M415.75,83.7a1.47,1.47,0,0,0-.61.14l-20.3,10.09a1.26,1.26,0,0,0-.69,1.44,1.38,1.38,0,0,0,1.33,1.08h0a1.43,1.43,0,0,0,.61-.14L416.4,86.22a1.27,1.27,0,0,0,.69-1.44A1.4,1.4,0,0,0,415.75,83.7Z"/><path class="cls-1" d="M403.57,117.66a1.28,1.28,0,0,0,1.25,1.1,1.31,1.31,0,0,0,.47-.09l17.38-6.38a1.36,1.36,0,0,0,.87-1.54,1.28,1.28,0,0,0-1.26-1.1,1.25,1.25,0,0,0-.46.09l-17.38,6.38A1.35,1.35,0,0,0,403.57,117.66Z"/><path class="cls-1" d="M377.32,102.59a3.74,3.74,0,1,0,3.74-3.73A3.74,3.74,0,0,0,377.32,102.59Z"/><path class="cls-2" d="M38.13,408.44H55.82a4.21,4.21,0,0,1,2.21.36,2,2,0,0,1,.45,1.54c0,.36-.07,1.12-.21,2.3q-.35,4.28-.35,7.1v18.39a3.47,3.47,0,0,0,1,2.76,2.12,2.12,0,0,1,.85,1.78V445a3.18,3.18,0,0,1-1.76,2.53,37,37,0,0,1-7.23,3,38,38,0,0,1-12.21,1.84q-31.78,0-31.78-48.52a111.22,111.22,0,0,1,3.09-26.49,49.33,49.33,0,0,1,10.63-21.24q7.53-8.59,16.1-8.6A23.13,23.13,0,0,1,46,349.79a6.18,6.18,0,0,0,2.32.66,5,5,0,0,0,1.61-.54,4.12,4.12,0,0,1,1.55-.4H54.2c1.31,0,2,.59,2,1.78V373c0,1.28-.59,1.91-1.76,1.91H51.47q-1.41,0-1.65-.3a23.49,23.49,0,0,1-1.16-4.17q-3.51-15.3-12.28-15.3a8.37,8.37,0,0,0-7,3.61q-2.73,3.6-3.89,16.7t-1.16,26.1A183.8,183.8,0,0,0,25.5,424a71.6,71.6,0,0,0,2.67,13.33c1,3,2.26,5,3.68,6.14a8,8,0,0,0,5,1.64q6.18,0,6.18-8.28V422.63a10.56,10.56,0,0,0-1-5.29q-1-1.6-4.14-2.86c-1-.39-1.54-1-1.54-1.77V410C36.38,408.94,37,408.44,38.13,408.44Z"/><path class="cls-2" d="M96.3,452.39q-14.65,0-21.85-13.79t-7.2-38.14q0-24.36,7.27-38.64T95.6,347.54q13,0,20.6,13.16t7.61,39q0,26.32-7.54,39.52T96.3,452.39Zm-.77-7.1c2.11,0,4-1.26,5.79-3.8s3-9.5,3.76-20.88,1.12-21.82,1.12-31.31a108.88,108.88,0,0,0-1.69-21.17q-1.68-8.31-3.64-10.7a6.25,6.25,0,0,0-5.06-2.4,6.81,6.81,0,0,0-4.66,1.84q-2.07,1.83-3.23,6.6t-2,18.61Q85,395.93,85,410.83q0,18.57,2.59,26.52T95.53,445.29Z"/><path class="cls-2" d="M181.42,427.37q0,11.76-6.38,18.39t-16.71,6.63q-10.31,0-16.91-6.57t-6.59-17.2V361.07a5.62,5.62,0,0,0-2.67-5.06,3.28,3.28,0,0,1-1.82-2.69v-2.89c0-1,.6-1.51,1.82-1.51h21.89c1,0,1.55.46,1.55,1.38v3a3.29,3.29,0,0,1-1.83,2.69,5.63,5.63,0,0,0-2.66,5.06v68.27q0,13.65,9.68,13.65,10.59,0,10.6-16V361.07a5.62,5.62,0,0,0-2.67-5.06,3.28,3.28,0,0,1-1.82-2.69v-2.89c0-1,.6-1.51,1.82-1.51h15.65c1,0,1.54.46,1.54,1.38v3a3.3,3.3,0,0,1-1.82,2.69,5.62,5.62,0,0,0-2.67,5.06Z"/><path class="cls-2" d="M211.17,403.25v35.61a5.68,5.68,0,0,0,2.67,5.12,3.17,3.17,0,0,1,1.82,2.63v2.95c0,1-.61,1.51-1.82,1.51H192c-1,0-1.55-.46-1.55-1.37v-3.09a3.27,3.27,0,0,1,1.83-2.63,5.78,5.78,0,0,0,2.66-5.12V361.07a5.62,5.62,0,0,0-2.66-5.05,3.2,3.2,0,0,1-1.83-2.7v-2.89c0-1,.61-1.51,1.83-1.51h18.38q15.58,0,23.72,6.57t8.14,19q0,19.77-19.58,25.55a26.28,26.28,0,0,1,8.74,6q3,3.31,4.59,9.75l5.13,20.83a18.69,18.69,0,0,0,1.93,5.42,9.13,9.13,0,0,0,3.12,2.66,1.36,1.36,0,0,1,.63,1.25v3.74c0,1-.51,1.44-1.54,1.44h-14a2.48,2.48,0,0,1-2.58-2.11l-9.61-36.12c-1-4-2.16-6.57-3.4-7.75A6.82,6.82,0,0,0,211.17,403.25Zm0-46.38v38.56q7.58,0,11.16-4.46t3.58-15.9q0-11.18-3.62-14.69T211.17,356.87Z"/><path class="cls-2" d="M254.68,438.86V361.07A5.61,5.61,0,0,0,252,356a3.19,3.19,0,0,1-1.82-2.7v-2.89c0-1,.6-1.51,1.82-1.51h25.33l8,47.89,7.89-47.89h25.61c1,0,1.55.46,1.55,1.38v3a3.31,3.31,0,0,1-1.83,2.7,5.7,5.7,0,0,0-2.66,5.05v77.79A5.65,5.65,0,0,0,318.6,444a3.17,3.17,0,0,1,1.76,2.63v2.95c0,1-.61,1.51-1.83,1.51H297.41c-1,0-1.47-.46-1.47-1.37v-3.09a3.27,3.27,0,0,1,1.74-2.63,5.73,5.73,0,0,0,2.72-5.13V359.2l-15.13,91.87h-5.59L264.74,359.2v79.65a5.69,5.69,0,0,0,2.65,5.13,3.14,3.14,0,0,1,1.81,2.63v2.95c0,1-.61,1.51-1.82,1.51H251.73c-1,0-1.54-.46-1.54-1.37v-3.09A3.26,3.26,0,0,1,252,444,5.77,5.77,0,0,0,254.68,438.86Z"/><path class="cls-2" d="M374.81,451.07H326.74c-1.12,0-1.68-.52-1.68-1.57v-2.89c0-.92.77-1.93,2.31-3a5.51,5.51,0,0,0,2-4.73V361.07a5.73,5.73,0,0,0-2.6-5.12,3.15,3.15,0,0,1-1.75-2.63v-3.15c0-.83.56-1.25,1.68-1.25h36.07c.66,0,1.9-.06,3.72-.2,1.64-.13,2.67-.19,3.09-.19,1.54,0,2.31.39,2.31,1.18V369c0,1-.1,1.61-.31,1.81a3.15,3.15,0,0,1-1.79.3h-2.6c-1.12,0-1.75-.62-1.89-1.84a26.22,26.22,0,0,0-2.78-8.77q-2-3.64-8-3.65h-8.84v37.18h3.23q3,0,4.14-1.08c.74-.72,1.68-3,2.8-6.8a8.78,8.78,0,0,1,.77-2,2.42,2.42,0,0,1,1.27-.19H361c1.21,0,1.82.54,1.82,1.64v24.76c0,1.06-.56,1.58-1.68,1.58H357.9a1.85,1.85,0,0,1-1.47-.49,10.42,10.42,0,0,1-1.13-3.06q-1.26-4.67-2.73-5.68a7.08,7.08,0,0,0-4.07-1h-2.81v41.59h9.47q5.26,0,7.3-2.33t5.05-12.78c.47-1.58,1.31-2.37,2.53-2.37h3c1.17,0,1.76.55,1.76,1.65Z"/><path class="cls-2" d="M411.93,356.54v82.32A5.68,5.68,0,0,0,414.6,444a3.17,3.17,0,0,1,1.82,2.63v2.95c0,1-.61,1.51-1.82,1.51H392.7c-1,0-1.54-.46-1.54-1.37v-3.09A3.28,3.28,0,0,1,393,444a5.77,5.77,0,0,0,2.67-5.12V356.54h-3.09a5.7,5.7,0,0,0-5.08,2.43q-1.65,2.43-3,10.71c-.09.75-.58,1.12-1.47,1.12h-2.74c-1.59,0-2.38-.64-2.38-1.91V349.78a2,2,0,0,1,2.24-2.24,40.71,40.71,0,0,1,5,.53,64.48,64.48,0,0,0,8.71.85h24.84c1.26-.17,2.8-.41,4.63-.72,2.8-.4,4.35-.59,4.63-.59,1.26,0,1.89.55,1.89,1.64v19.64c0,1.27-.6,1.91-1.82,1.91h-2.67c-1.07,0-1.72-.29-1.93-.86a40.66,40.66,0,0,1-1-4.27c-.84-3.76-1.7-6.23-2.59-7.39s-2.46-1.74-4.7-1.74Z"/></g></g></svg>