<svg xmlns="http://www.w3.org/2000/svg" viewBox="0 0 506.67 429.74"><defs><style>.cls-1{fill:#fff;}</style></defs><g id="Capa_2" data-name="Capa 2"><g id="Capa_1-2" data-name="Capa 1"><path class="cls-1" d="M449.76,311.35a3.56,3.56,0,0,1-.79-.1,3.42,3.42,0,0,1-2.54-3.3l-.06-.4a20.26,20.26,0,0,1,0-6.31c.05-.45.1-.9.14-1.35l0-.33c-7-2.24-12.81-3.28-18.19-3.28A36.39,36.39,0,0,0,417,298a25.06,25.06,0,0,0-12.57,8.74l-2,2.67-1.17-3.16c-1.7-4.62.2-10.64,4.42-14,4.6-3.65,9.95-4.57,14.57-5,1.76-.16,3.59-.24,5.44-.24,7.69,0,15.27,1.36,22.37,2.76a65.22,65.22,0,0,0,12.58,1.31,49.23,49.23,0,0,0,6.82-.46c8.66-1.2,15-5.61,19.49-13.49a44.6,44.6,0,0,0,5.67-16A14.85,14.85,0,0,0,490,250a34,34,0,0,0-6.54-7.32,11.52,11.52,0,0,1-4.42-7.92c-.46-3.65,1.3-6.31,4.61-7a31.32,31.32,0,0,1,6.07-.61,26.22,26.22,0,0,1,11.08,2.4c3.72,1.73,4.87,5.26,5.79,8.1l.09.27v5.11l0,.18a52.39,52.39,0,0,1-1.79,6.12,35.8,35.8,0,0,0-2,7.41,30.3,30.3,0,0,1-1.89,7.35c-.86,2.26-1.64,4.6-2.4,6.87A105.19,105.19,0,0,1,494,283.1c-5.9,12.36-16.11,19.17-28.74,19.17a39.31,39.31,0,0,1-6.4-.54l-.29,0-.19.28a39.54,39.54,0,0,1-5.33,7.48l-.15.17A4.35,4.35,0,0,1,449.76,311.35Z"/><path class="cls-1" d="M235.69,149.7l-17-3.2-21.48-4.06c-20.64-3.9-42-7.93-63-11.93-2.73-.52-5.46-1-8.2-1.52-6-1.11-12.26-2.25-18.37-3.6a3.42,3.42,0,0,0-.59,0,12,12,0,0,0-2.21.31c-.58.12-1.18.25-1.8.32a232.3,232.3,0,0,1-28.39,1.86c-4.75,0-9.45-.18-14-.54-20.4-1.6-35.16-5.86-47.86-13.8a38.35,38.35,0,0,1-9.65-8.26L0,101.32l5,.91,3.28.59,6.12,1.12,33.4,6.33,58.05,11a11.81,11.81,0,0,0,2.19.2,30.32,30.32,0,0,0,5.76-.77c.78-.16,1.58-.32,2.38-.45a223.74,223.74,0,0,1,37.43-3.34l2.24,0c26.93.32,49.78,5.73,69.84,16.54a85,85,0,0,1,18.67,13.16l.15.13a3.75,3.75,0,0,1,1.4,2.34l.42,2.61Z"/><path class="cls-1" d="M154.84,262.36l0,.08c-19.22,1.66-36.69,6.1-51.91,13.22a126.59,126.59,0,0,0-43,33l-.78.92L60.86,313l96-47.28.69-.06,2-.16c1.43-.12,2.85-.24,4.28-.38,13.42-1.32,29-3.09,44-7.45,13.5-3.93,23.26-9.4,30.69-17.22,6.69-7,10.94-15.36,14.22-22.58l2.14-4.72Z"/><path class="cls-1" d="M283.15,215.22c-9.22-7.77-18.51-16.47-21.9-29.67-2.14-8.32-.36-15.9,5.28-22.55a22.58,22.58,0,0,1,1.58-1.64,7.67,7.67,0,0,1,.86-.67l.45-.31,2.18-1.6,16,60.23Z"/><path class="cls-1" d="M355.08,292.76,307.4,357l-2.47,1a64.23,64.23,0,0,1-6.06,2.21c-9.41,2.76-17.14,8.31-23.62,17-7.09,9.48-12.07,20.92-15.65,36A42.67,42.67,0,0,0,258,424.38l.14,5.36L310.75,359c22.5-12,37.45-31.92,47-62.59l.38-1.21Z"/><path class="cls-1" d="M236.21,325.66l-1.11.56c-27.57,14-47,32.36-59.5,56L175,383.4l2.63,2.78,60.95-57.43.24-.1,3-1.31c2.1-.92,4.28-1.87,6.45-2.71,12.51-4.84,25.81-10.27,38.32-17.19a95.7,95.7,0,0,0,27-21.71A84.89,84.89,0,0,0,330,255.16a172.82,172.82,0,0,0,4.56-17.54l1.09-5.63Z"/><path class="cls-1" d="M443.34,354.13a3.28,3.28,0,0,1-1.64-2.53c0-.09,0-.17-.05-.25-2.39-6.48-7.81-10.35-14.5-10.35-.6,0-1.22,0-1.84.09-1,.1-2.07.24-3.08.38a56.65,56.65,0,0,1-5.77.57h-.67c-7,0-12.5-3.16-16.32-9.39a28.61,28.61,0,0,1-4.18-15.52l.09-9.23,3.47,8.55a24.71,24.71,0,0,0,8.34,11.22,23.55,23.55,0,0,0,14.27,4.22c1.22,0,2.52-.06,3.87-.19a28.49,28.49,0,0,1,1.06-4.88c.05-.18.11-.37.16-.56.36-1.27,1.11-3.91,4.06-3.91,2.67,0,3.55,2.31,4,3.56l.21.53a25.29,25.29,0,0,1,1.65,6.24c.08.5.13.66.88,1A15.34,15.34,0,0,1,446,353.1l-.7,2.06Z"/><path class="cls-1" d="M377.75,111l-2.8-8c-9.23-26.29-25-42.74-48.21-50.28L275.68,0l4.25,9.55a101.64,101.64,0,0,0,11.93,20c5.7,7.58,13.69,17,25,23.12a19.7,19.7,0,0,0,6.86,2.48Z"/><path class="cls-1" d="M416.41,187.42h-.47a12.36,12.36,0,0,1-5.41-1.65,20.24,20.24,0,0,0-9.33-2.45c-4.07-.18-6.54-2.58-6.44-6.26s-1.95-6-5.06-8.27c-.45-.32-.86-.66-1.39-1.08l-.93-.74L383,163.48l5.62.17c5.72.18,10.85,1.81,16.62,5.28a54.81,54.81,0,0,1,13.89,12.29,3.67,3.67,0,0,1,.78,4.33A3.62,3.62,0,0,1,416.41,187.42Z"/><path class="cls-1" d="M448.91,169.1,449,169l-.52-1.15c-8.28-18.09-24.21-28.32-39.61-38.22l-2.29-1.47-3.08,2.63,42,40.44c0,.43.06.86.09,1.27a19.75,19.75,0,0,1,0,3.84,4.33,4.33,0,0,0,2.28,4.57,277.26,277.26,0,0,1,26.29,18.74c.61.49,1.21,1,1.81,1.49l.86.72,1.48,1.22,2.46-3.22Z"/><path class="cls-1" d="M406.46,373.49l-.44.36a4.43,4.43,0,0,0-.78.73c-4.64,5.94-10.1,12.95-15.47,19.87l-.08.1a3.55,3.55,0,0,0-.66,1,9.85,9.85,0,0,0-3,1.9c-5.93,5.24-9.83,11.95-13.16,18.43a1.9,1.9,0,0,0,.47,2.32l.07.07,1.49,1.63,4.47-5.76c3.06-3.94,6.21-8,9.35-12l2.94-3.27h.75l.1-.63.19,0,.28,0a12.09,12.09,0,0,0,7.52-4c4.36-4.73,7.21-10.72,9-18.87l1.16-5.35Z"/><path class="cls-1" d="M292.09,113.55l-.47-3.36c-.05-.35-.08-.64-.11-.89a10.45,10.45,0,0,0-.22-1.36c-5.13-20.32-15.2-36.9-29.94-49.28-16.44-13.81-36.6-20.53-61.62-20.53H194.9c-29.38,0-55.07-3.4-78.54-10.41l-.11,0a3.35,3.35,0,0,0-1.24-.26h-.1L61.72,3.22,81.49,16.63c8.63,5.85,18.82,10.52,31.13,14.27Z"/></g></g></svg>