<svg xmlns="http://www.w3.org/2000/svg" viewBox="0 0 20 19.99"><defs><style>.cls-1{fill:#fff;}</style></defs><g id="Capa_2" data-name="Capa 2"><g id="Capa_1-2" data-name="Capa 1"><path class="cls-1" d="M19.62,9.11,10.89.38a1.27,1.27,0,0,0-1.82,0L7.26,2.19l2.3,2.3a1.53,1.53,0,0,1,1.94,2l2.21,2.21a1.53,1.53,0,0,1,1.95.94,1.55,1.55,0,0,1-.37,1.6,1.52,1.52,0,0,1-2.16,0,1.55,1.55,0,0,1-.34-1.67L10.72,7.46V12.9a1.57,1.57,0,0,1,.4.29,1.52,1.52,0,0,1,0,2.16,1.54,1.54,0,0,1-2.17,0H9a1.53,1.53,0,0,1,0-2.16H9a1.64,1.64,0,0,1,.5-.34V7.36a1.52,1.52,0,0,1-.83-2v0L6.36,3.08l-6,6a1.3,1.3,0,0,0,0,1.83l8.73,8.73a1.28,1.28,0,0,0,1.81,0h0l8.69-8.69a1.29,1.29,0,0,0,0-1.82h0"/></g></g></svg>