<svg xmlns="http://www.w3.org/2000/svg" viewBox="0 0 19.98 20.02"><defs><style>.cls-1{fill:#020024;}</style></defs><g id="Capa_2" data-name="Capa 2"><g id="Capa_1-2" data-name="Capa 1"><g id="Capa_2-2" data-name="Capa 2"><g id="Capa_1-2-2" data-name="Capa 1-2"><path class="cls-1" d="M19.64,9.11,10.91.38a1.28,1.28,0,0,0-1.8,0l0,0L7.28,2.19l2.3,2.3a1.54,1.54,0,0,1,1.94,2L13.73,8.7a1.54,1.54,0,0,1,1.95.94h0a1.55,1.55,0,0,1-.37,1.6,1.51,1.51,0,0,1-2.15,0h0a1.54,1.54,0,0,1-.34-1.67L10.74,7.46V12.9a2.27,2.27,0,0,1,.4.29,1.53,1.53,0,0,1,0,2.15h0a1.53,1.53,0,0,1-2.17,0H9a1.52,1.52,0,0,1,0-2.16H9a1.77,1.77,0,0,1,.5-.34V7.36a1.51,1.51,0,0,1-.84-2v0h0L6.38,3.08l-6,6a1.29,1.29,0,0,0,0,1.83l8.73,8.73a1.28,1.28,0,0,0,1.81,0h0L19.61,11a1.29,1.29,0,0,0,0-1.82h0"/></g></g></g></g></svg>