<svg xmlns="http://www.w3.org/2000/svg" viewBox="0 0 18 18"><defs><style>.cls-1{fill:#020024;}</style></defs><g id="Capa_2" data-name="Capa 2"><g id="Capa_1-2" data-name="Capa 1"><g id="Capa_2-2" data-name="Capa 2"><g id="Capa_1-2-2" data-name="Capa 1-2"><path class="cls-1" d="M0,0H18V18H0ZM16.52,13.71c-.13-.82-.66-1.51-2.25-2.16-.55-.26-1.16-.44-1.35-.85a1,1,0,0,1,0-.53A.87.87,0,0,1,14,9.67a1.22,1.22,0,0,1,.73.68c.77-.51.77-.51,1.31-.84a3.56,3.56,0,0,0-.43-.59,2.54,2.54,0,0,0-2.13-.77L13,8.21A2.48,2.48,0,0,0,11.7,9a2.35,2.35,0,0,0,.35,3.29l.08.06c1,.77,2.52.93,2.71,1.65.18.88-.65,1.16-1.48,1.06a2,2,0,0,1-1.31-1l-1.37.79a2.89,2.89,0,0,0,.6.83c1.31,1.32,4.57,1.25,5.16-.75a2.6,2.6,0,0,0,0-1.24ZM9.79,8.27H8.1v4.36a7.06,7.06,0,0,1-.11,2A1,1,0,0,1,6.82,15a1.5,1.5,0,0,1-.63-.64.6.6,0,0,0-.09-.15l-1.37.85a2.61,2.61,0,0,0,1,1.13,3.27,3.27,0,0,0,2.41.31A2.11,2.11,0,0,0,9.5,15.44,5.2,5.2,0,0,0,9.78,13V8.27Z"/></g></g></g></g></svg>